<svg width="87" height="87" viewBox="0 0 87 87" fill="none" xmlns="http://www.w3.org/2000/svg">
<g clip-path="url(#clip0_615_410)">
<rect x="0.567095" y="0.567095" width="84.9441" height="84.9451" fill="white"/>
<rect x="0.567095" y="0.567095" width="84.9441" height="84.9451" stroke="#222222" stroke-width="1.13419"/>
<path d="M58.8972 26.5603C54.0194 31.4381 52.2214 33.2936 52.2214 33.4466C52.2214 33.6092 54.0003 35.4456 58.7729 40.2373L65.3244 46.8176V56.0185V65.229H49.9546H34.5753L40.8686 58.9356C44.5604 55.2438 47.1523 52.5753 47.1523 52.4797C47.1523 52.2501 33.9823 39.0322 33.6858 38.9557C33.4371 38.8983 33.1885 39.0705 33.1885 39.3C33.1885 39.3861 36.096 42.3606 39.6444 45.909C43.1927 49.4574 46.1002 52.4032 46.1002 52.4606C46.1002 52.5084 43.1927 55.4638 39.6348 59.0217C33.6858 64.9708 33.1693 65.5159 33.2267 65.7455L33.2841 65.9941H49.639C65.707 65.9941 65.9843 65.9941 66.0895 65.8124C66.1565 65.6881 66.1852 62.4745 66.1852 56.0759V46.5307L59.6623 40.0078L53.13 33.4753L59.6623 26.9428C65.0662 21.539 66.1852 20.3721 66.1278 20.2191C66.0417 20.0087 65.9078 19.8939 65.707 19.8939C65.6304 19.8939 62.5603 22.8971 58.8972 26.5603Z" fill="#222222"/>
<path d="M19.9892 20.1712C19.9222 20.2955 19.8936 23.5092 19.8936 29.9077V39.453L26.4164 45.9758L32.9488 52.5083L26.4259 59.0312C20.8691 64.5977 19.9031 65.5924 19.9509 65.7741C20.0179 66.0228 20.2953 66.1375 20.5344 66.0036C20.63 65.9558 23.6619 62.943 27.2867 59.3181C31.7819 54.8038 33.8574 52.6613 33.8574 52.5179C33.8574 52.384 31.7915 50.2511 27.3059 45.7463L20.7543 39.166V29.9555V20.7546H36.1241H51.5034L45.2101 27.048C41.7575 30.5007 38.9264 33.3987 38.9264 33.4848C38.9264 33.6952 52.2686 47.0566 52.4885 47.0566C52.699 47.0566 52.8902 46.8749 52.8902 46.674C52.8902 46.5975 49.9636 43.6039 46.3866 40.0268L39.8829 33.523L46.3961 27.0097C52.3929 21.0129 52.9094 20.4677 52.852 20.2381L52.7946 19.9895H36.4397C20.3718 19.9895 20.0944 19.9895 19.9892 20.1712Z" fill="#222222"/>
</g>
<defs>
<clipPath id="clip0_615_410">
<rect width="86.0783" height="86.0793" fill="white"/>
</clipPath>
</defs>
</svg>
