<svg width="203" height="53" viewBox="0 0 203 53" fill="none" xmlns="http://www.w3.org/2000/svg">
<g clip-path="url(#clip0_615_411)">
<path d="M5.73212 20.1467V15.8127H1.39813V14.4267H5.73212V10.0927H7.11813V14.4267H11.4411V15.8127H7.11813V20.1467H5.73212ZM22.9552 23.3587C22.1705 23.3587 21.4482 23.2193 20.7882 22.9407C20.1282 22.662 19.5599 22.266 19.0832 21.7527C18.6065 21.232 18.2582 20.6123 18.0382 19.8937L19.5782 19.4317C19.8422 20.2163 20.2749 20.8103 20.8762 21.2137C21.4849 21.617 22.1705 21.8113 22.9332 21.7967C23.6372 21.782 24.2422 21.6243 24.7482 21.3237C25.2615 21.023 25.6539 20.605 25.9252 20.0697C26.1965 19.5343 26.3322 18.9147 26.3322 18.2107C26.3322 17.1327 26.0169 16.2673 25.3862 15.6147C24.7629 14.9547 23.9379 14.6247 22.9112 14.6247C22.6252 14.6247 22.3245 14.665 22.0092 14.7457C21.6939 14.819 21.4005 14.9253 21.1292 15.0647L20.3152 13.7777L26.4752 8.09067L26.7392 8.75067H18.6652V7.19967H27.8172V8.77267L22.4492 13.8987L22.4272 13.2607C23.5272 13.1213 24.4952 13.246 25.3312 13.6347C26.1672 14.0233 26.8199 14.6173 27.2892 15.4167C27.7659 16.2087 28.0042 17.14 28.0042 18.2107C28.0042 19.2227 27.7842 20.1173 27.3442 20.8947C26.9115 21.6647 26.3139 22.2697 25.5512 22.7097C24.7885 23.1423 23.9232 23.3587 22.9552 23.3587ZM31.7054 23.0397L37.5354 8.77267H30.1984V7.19967H39.2624V8.77267L33.4434 23.0397H31.7054ZM46.5763 23.3697C45.755 23.3697 44.996 23.201 44.2993 22.8637C43.6027 22.5263 43.0087 22.0607 42.5173 21.4667C42.026 20.8727 41.674 20.1907 41.4613 19.4207L43.0123 19.0027C43.1517 19.5747 43.4047 20.0697 43.7713 20.4877C44.138 20.8983 44.567 21.2173 45.0583 21.4447C45.557 21.672 46.0777 21.7857 46.6203 21.7857C47.3243 21.7857 47.955 21.617 48.5123 21.2797C49.077 20.935 49.5243 20.4803 49.8543 19.9157C50.1843 19.351 50.3493 18.7313 50.3493 18.0567C50.3493 17.36 50.177 16.733 49.8323 16.1757C49.4877 15.611 49.033 15.1637 48.4683 14.8337C47.9037 14.5037 47.2877 14.3387 46.6203 14.3387C45.8723 14.3387 45.227 14.5037 44.6843 14.8337C44.1417 15.1563 43.709 15.5633 43.3863 16.0547L41.9123 15.4387L42.3963 7.19967H50.8553V8.75067H43.1113L43.9143 7.99167L43.4853 15.0207L43.0783 14.4817C43.533 13.961 44.083 13.554 44.7283 13.2607C45.3737 12.9673 46.052 12.8207 46.7633 12.8207C47.7387 12.8207 48.6187 13.0553 49.4033 13.5247C50.188 13.9867 50.8113 14.6137 51.2733 15.4057C51.7353 16.1977 51.9663 17.0813 51.9663 18.0567C51.9663 19.0247 51.7207 19.912 51.2293 20.7187C50.738 21.518 50.0853 22.1597 49.2713 22.6437C48.4573 23.1277 47.559 23.3697 46.5763 23.3697ZM61.7639 23.0397V9.00367L58.7829 10.7967V8.98167L61.7639 7.19967H63.4029V23.0397H61.7639ZM68.4222 23.0397L74.2522 8.77267H66.9152V7.19967H75.9792V8.77267L70.1602 23.0397H68.4222ZM87.2794 23.3587C86.4948 23.3587 85.7724 23.2193 85.1124 22.9407C84.4524 22.662 83.8841 22.266 83.4074 21.7527C82.9308 21.232 82.5824 20.6123 82.3624 19.8937L83.9024 19.4317C84.1664 20.2163 84.5991 20.8103 85.2004 21.2137C85.8091 21.617 86.4948 21.8113 87.2574 21.7967C87.9614 21.782 88.5664 21.6243 89.0724 21.3237C89.5858 21.023 89.9781 20.605 90.2494 20.0697C90.5208 19.5343 90.6564 18.9147 90.6564 18.2107C90.6564 17.1327 90.3411 16.2673 89.7104 15.6147C89.0871 14.9547 88.2621 14.6247 87.2354 14.6247C86.9494 14.6247 86.6488 14.665 86.3334 14.7457C86.0181 14.819 85.7248 14.9253 85.4534 15.0647L84.6394 13.7777L90.7994 8.09067L91.0634 8.75067H82.9894V7.19967H92.1414V8.77267L86.7734 13.8987L86.7514 13.2607C87.8514 13.1213 88.8194 13.246 89.6554 13.6347C90.4914 14.0233 91.1441 14.6173 91.6134 15.4167C92.0901 16.2087 92.3284 17.14 92.3284 18.2107C92.3284 19.2227 92.1084 20.1173 91.6684 20.8947C91.2358 21.6647 90.6381 22.2697 89.8754 22.7097C89.1128 23.1423 88.2474 23.3587 87.2794 23.3587ZM96.0296 23.0397L101.86 8.77267H94.5226V7.19967H103.587V8.77267L97.7676 23.0397H96.0296ZM111.44 6.88067C112.437 6.88067 113.339 7.12267 114.146 7.60667C114.96 8.08334 115.605 8.73601 116.082 9.56467C116.558 10.386 116.797 11.31 116.797 12.3367V17.8367C116.797 18.8927 116.558 19.8387 116.082 20.6747C115.605 21.5107 114.952 22.1707 114.124 22.6547C113.302 23.1313 112.367 23.3697 111.319 23.3697C110.417 23.3697 109.581 23.1717 108.811 22.7757C108.048 22.3723 107.417 21.8187 106.919 21.1147L108.151 20.0917C108.488 20.6123 108.935 21.0303 109.493 21.3457C110.057 21.661 110.666 21.8187 111.319 21.8187C112.067 21.8187 112.727 21.6427 113.299 21.2907C113.878 20.9313 114.333 20.462 114.663 19.8827C115 19.296 115.169 18.6617 115.169 17.9797V14.5257L115.565 14.9877C115.11 15.7137 114.505 16.3003 113.75 16.7477C113.002 17.195 112.18 17.4187 111.286 17.4187C110.31 17.4187 109.427 17.184 108.635 16.7147C107.85 16.2453 107.227 15.6147 106.765 14.8227C106.31 14.0307 106.083 13.147 106.083 12.1717C106.083 11.1963 106.325 10.309 106.809 9.50967C107.293 8.70301 107.942 8.06501 108.756 7.59567C109.57 7.11901 110.464 6.88067 111.44 6.88067ZM111.44 8.44267C110.75 8.44267 110.123 8.61134 109.559 8.94867C108.994 9.27867 108.543 9.72601 108.206 10.2907C107.876 10.8553 107.711 11.4823 107.711 12.1717C107.711 12.861 107.876 13.488 108.206 14.0527C108.536 14.6173 108.983 15.0683 109.548 15.4057C110.112 15.7357 110.739 15.9007 111.429 15.9007C112.118 15.9007 112.745 15.7357 113.31 15.4057C113.882 15.0683 114.333 14.6173 114.663 14.0527C115 13.488 115.169 12.861 115.169 12.1717C115.169 11.4897 115 10.8663 114.663 10.3017C114.333 9.73701 113.885 9.28601 113.321 8.94867C112.756 8.61134 112.129 8.44267 111.44 8.44267ZM131.246 23.0397V19.9707H123.832V18.4307L129.134 7.19967H130.949L125.647 18.4307H131.246V13.8107H132.874V18.4307H134.601V19.9707H132.874V23.0397H131.246ZM140.01 23.0397V9.00367L137.029 10.7967V8.98167L140.01 7.19967H141.649V23.0397H140.01ZM152.987 23.0397V9.00367L150.006 10.7967V8.98167L152.987 7.19967H154.626V23.0397H152.987ZM165.772 23.0397V19.9707H158.358V18.4307L163.66 7.19967H165.475L160.173 18.4307H165.772V13.8107H167.4V18.4307H169.127V19.9707H167.4V23.0397H165.772Z" fill="#222222"/>
<path d="M1.19813 47.0397V35.5197H8.55813V37.0957H2.87013V47.0397H1.19813ZM12.3095 47.2797C11.4455 47.2797 10.6962 47.085 10.0615 46.6957C9.42683 46.3063 8.93617 45.7703 8.5895 45.0877C8.24817 44.3997 8.0775 43.6077 8.0775 42.7117C8.0775 41.8103 8.2535 41.0183 8.6055 40.3357C8.9575 39.6477 9.45083 39.1143 10.0855 38.7357C10.7202 38.3517 11.4615 38.1597 12.3095 38.1597C13.1735 38.1597 13.9228 38.3543 14.5575 38.7437C15.1922 39.133 15.6828 39.669 16.0295 40.3517C16.3762 41.0343 16.5495 41.821 16.5495 42.7117C16.5495 43.613 16.3735 44.4077 16.0215 45.0957C15.6748 45.7783 15.1842 46.3143 14.5495 46.7037C13.9148 47.0877 13.1682 47.2797 12.3095 47.2797ZM12.3095 45.7037C13.1362 45.7037 13.7522 45.4263 14.1575 44.8717C14.5682 44.3117 14.7735 43.5917 14.7735 42.7117C14.7735 41.8103 14.5655 41.0903 14.1495 40.5517C13.7388 40.0077 13.1255 39.7357 12.3095 39.7357C11.7495 39.7357 11.2882 39.8637 10.9255 40.1197C10.5628 40.3703 10.2935 40.7197 10.1175 41.1677C9.9415 41.6103 9.8535 42.125 9.8535 42.7117C9.8535 43.6183 10.0615 44.3437 10.4775 44.8877C10.8935 45.4317 11.5042 45.7037 12.3095 45.7037ZM22.3635 47.2797C21.5368 47.2797 20.8435 47.0797 20.2835 46.6797C19.7235 46.2743 19.2995 45.7277 19.0115 45.0397C18.7235 44.3517 18.5795 43.5757 18.5795 42.7117C18.5795 41.8477 18.7208 41.0717 19.0035 40.3837C19.2915 39.6957 19.7128 39.1543 20.2675 38.7597C20.8275 38.3597 21.5155 38.1597 22.3315 38.1597C23.1422 38.1597 23.8408 38.3597 24.4275 38.7597C25.0195 39.1543 25.4755 39.6957 25.7955 40.3837C26.1155 41.0663 26.2755 41.8423 26.2755 42.7117C26.2755 43.5757 26.1155 44.3543 25.7955 45.0477C25.4808 45.7357 25.0302 46.2797 24.4435 46.6797C23.8622 47.0797 23.1688 47.2797 22.3635 47.2797ZM18.2995 50.8797V38.3997H19.7875V44.6157H19.9795V50.8797H18.2995ZM22.1315 45.7677C22.6648 45.7677 23.1048 45.6317 23.4515 45.3597C23.8035 45.0877 24.0648 44.7223 24.2355 44.2637C24.4115 43.7997 24.4995 43.2823 24.4995 42.7117C24.4995 42.1463 24.4115 41.6343 24.2355 41.1757C24.0648 40.717 23.8008 40.3517 23.4435 40.0797C23.0862 39.8077 22.6302 39.6717 22.0755 39.6717C21.5528 39.6717 21.1208 39.7997 20.7795 40.0557C20.4435 40.3117 20.1928 40.669 20.0275 41.1277C19.8675 41.5863 19.7875 42.1143 19.7875 42.7117C19.7875 43.309 19.8675 43.837 20.0275 44.2957C20.1875 44.7543 20.4408 45.1143 20.7875 45.3757C21.1342 45.637 21.5822 45.7677 22.1315 45.7677ZM33.2979 47.0397V44.0397H31.5859C31.3832 44.0397 31.1405 44.0317 30.8579 44.0157C30.5805 43.9997 30.3192 43.9703 30.0739 43.9277C29.4285 43.8103 28.8899 43.5303 28.4579 43.0877C28.0259 42.6397 27.8099 42.0237 27.8099 41.2397C27.8099 40.4823 28.0125 39.8743 28.4179 39.4157C28.8285 38.9517 29.3485 38.653 29.9779 38.5197C30.2499 38.4557 30.5272 38.421 30.8099 38.4157C31.0979 38.405 31.3405 38.3997 31.5379 38.3997H34.9699L34.9779 47.0397H33.2979ZM27.5619 47.0397L29.7459 43.6237H31.5139L29.3459 47.0397H27.5619ZM31.4419 42.6957H33.2979V39.7437H31.4419C31.3245 39.7437 31.1805 39.749 31.0099 39.7597C30.8392 39.7703 30.6739 39.7997 30.5139 39.8477C30.3485 39.8957 30.1885 39.981 30.0339 40.1037C29.8845 40.2263 29.7619 40.3837 29.6659 40.5757C29.5699 40.7623 29.5219 40.9783 29.5219 41.2237C29.5219 41.5917 29.6259 41.8957 29.8339 42.1357C30.0419 42.3703 30.2899 42.525 30.5779 42.5997C30.7325 42.6423 30.8872 42.669 31.0419 42.6797C31.1965 42.6903 31.3299 42.6957 31.4419 42.6957ZM42.3258 47.0397V44.0317C42.0324 44.181 41.6884 44.3037 41.2938 44.3997C40.8991 44.4903 40.4831 44.5357 40.0458 44.5357C39.1604 44.5357 38.4484 44.3383 37.9098 43.9437C37.3764 43.5437 37.0298 42.9677 36.8698 42.2157C36.8271 41.9917 36.7951 41.7623 36.7738 41.5277C36.7524 41.2877 36.7391 41.069 36.7338 40.8717C36.7338 40.6743 36.7338 40.5277 36.7338 40.4317V38.3997H38.4298V40.4317C38.4298 40.5703 38.4351 40.7543 38.4457 40.9837C38.4564 41.2077 38.4858 41.4263 38.5338 41.6397C38.6351 42.1197 38.8378 42.477 39.1418 42.7117C39.4458 42.941 39.8751 43.0557 40.4298 43.0557C40.8298 43.0557 41.1898 43.005 41.5098 42.9037C41.8351 42.797 42.1071 42.661 42.3258 42.4957V38.3997H44.0138V47.0397H42.3258ZM48.7006 47.2797C48.0606 47.2797 47.5246 47.1623 47.0926 46.9277C46.6606 46.6877 46.3326 46.373 46.1086 45.9837C45.89 45.589 45.7806 45.157 45.7806 44.6877C45.7806 44.2503 45.858 43.8663 46.0126 43.5357C46.1673 43.205 46.3966 42.925 46.7006 42.6957C47.0046 42.461 47.378 42.2717 47.8206 42.1277C48.2046 42.0157 48.6393 41.917 49.1246 41.8317C49.61 41.7463 50.1193 41.6663 50.6526 41.5917C51.1913 41.517 51.7246 41.4423 52.2526 41.3677L51.6446 41.7037C51.6553 41.0263 51.5113 40.525 51.2126 40.1997C50.9193 39.869 50.4126 39.7037 49.6926 39.7037C49.2393 39.7037 48.8233 39.8103 48.4446 40.0237C48.066 40.2317 47.802 40.5783 47.6526 41.0637L46.0926 40.5837C46.306 39.8423 46.7113 39.253 47.3086 38.8157C47.9113 38.3783 48.7113 38.1597 49.7086 38.1597C50.482 38.1597 51.154 38.293 51.7246 38.5597C52.3006 38.821 52.722 39.237 52.9886 39.8077C53.1273 40.0903 53.2126 40.389 53.2446 40.7037C53.2766 41.0183 53.2926 41.357 53.2926 41.7197V47.0397H51.8126V45.0637L52.1006 45.3197C51.7433 45.981 51.2873 46.4743 50.7326 46.7997C50.1833 47.1197 49.506 47.2797 48.7006 47.2797ZM48.9966 45.9117C49.4713 45.9117 49.8793 45.829 50.2206 45.6637C50.562 45.493 50.8366 45.277 51.0446 45.0157C51.2526 44.7543 51.3886 44.4823 51.4526 44.1997C51.5433 43.9437 51.594 43.6557 51.6046 43.3357C51.6206 43.0157 51.6286 42.7597 51.6286 42.5677L52.1726 42.7677C51.6446 42.8477 51.1646 42.9197 50.7326 42.9837C50.3006 43.0477 49.9086 43.1117 49.5566 43.1757C49.21 43.2343 48.9006 43.3063 48.6286 43.3917C48.3993 43.4717 48.194 43.5677 48.0126 43.6797C47.8366 43.7917 47.6953 43.9277 47.5886 44.0877C47.4873 44.2477 47.4366 44.4423 47.4366 44.6717C47.4366 44.8957 47.4926 45.1037 47.6046 45.2957C47.7166 45.4823 47.8873 45.6317 48.1166 45.7437C48.346 45.8557 48.6393 45.9117 48.9966 45.9117ZM60.626 47.0397V44.0397H58.914C58.7113 44.0397 58.4687 44.0317 58.186 44.0157C57.9087 43.9997 57.6473 43.9703 57.402 43.9277C56.7567 43.8103 56.218 43.5303 55.786 43.0877C55.354 42.6397 55.138 42.0237 55.138 41.2397C55.138 40.4823 55.3407 39.8743 55.746 39.4157C56.1567 38.9517 56.6767 38.653 57.306 38.5197C57.578 38.4557 57.8553 38.421 58.138 38.4157C58.426 38.405 58.6687 38.3997 58.866 38.3997H62.298L62.306 47.0397H60.626ZM54.89 47.0397L57.074 43.6237H58.842L56.674 47.0397H54.89ZM58.77 42.6957H60.626V39.7437H58.77C58.6527 39.7437 58.5087 39.749 58.338 39.7597C58.1673 39.7703 58.002 39.7997 57.842 39.8477C57.6767 39.8957 57.5167 39.981 57.362 40.1037C57.2127 40.2263 57.09 40.3837 56.994 40.5757C56.898 40.7623 56.85 40.9783 56.85 41.2237C56.85 41.5917 56.954 41.8957 57.162 42.1357C57.37 42.3703 57.618 42.525 57.906 42.5997C58.0607 42.6423 58.2153 42.669 58.37 42.6797C58.5247 42.6903 58.658 42.6957 58.77 42.6957ZM66.945 47.0397V45.6237C67.265 45.6823 67.5077 45.6743 67.673 45.5997C67.8437 45.5197 67.969 45.3757 68.049 45.1677C68.1343 44.9597 68.2063 44.6903 68.265 44.3597C68.3557 43.8743 68.433 43.3223 68.497 42.7037C68.5663 42.0797 68.6277 41.405 68.681 40.6797C68.7343 39.9543 68.7823 39.1943 68.825 38.3997H75.033V47.0397H73.353V39.9757H70.329C70.297 40.397 70.2597 40.845 70.217 41.3197C70.1797 41.789 70.137 42.2557 70.089 42.7197C70.041 43.1837 69.9903 43.6183 69.937 44.0237C69.8837 44.429 69.8277 44.7757 69.769 45.0637C69.6623 45.6397 69.505 46.0983 69.297 46.4397C69.0943 46.7757 68.8063 46.9917 68.433 47.0877C68.0597 47.189 67.5637 47.173 66.945 47.0397ZM84.5563 38.3997V47.0397H82.9483V41.0317L78.6283 47.0397H77.2683V38.3997H78.8763V44.2877L83.2043 38.3997H84.5563ZM86.7839 47.0397V38.3997H88.4559V41.9277H92.6719V38.3997H94.3439V47.0397H92.6719V43.5037H88.4559V47.0397H86.7839ZM103.869 38.3997V47.0397H102.261V41.0317L97.9408 47.0397H96.5808V38.3997H98.1888V44.2877L102.517 38.3997H103.869ZM111.36 47.0397V44.0397H109.648C109.446 44.0397 109.203 44.0317 108.92 44.0157C108.643 43.9997 108.382 43.9703 108.136 43.9277C107.491 43.8103 106.952 43.5303 106.52 43.0877C106.088 42.6397 105.872 42.0237 105.872 41.2397C105.872 40.4823 106.075 39.8743 106.48 39.4157C106.891 38.9517 107.411 38.653 108.04 38.5197C108.312 38.4557 108.59 38.421 108.872 38.4157C109.16 38.405 109.403 38.3997 109.6 38.3997H113.032L113.04 47.0397H111.36ZM105.624 47.0397L107.808 43.6237H109.576L107.408 47.0397H105.624ZM109.504 42.6957H111.36V39.7437H109.504C109.387 39.7437 109.243 39.749 109.072 39.7597C108.902 39.7703 108.736 39.7997 108.576 39.8477C108.411 39.8957 108.251 39.981 108.096 40.1037C107.947 40.2263 107.824 40.3837 107.728 40.5757C107.632 40.7623 107.584 40.9783 107.584 41.2237C107.584 41.5917 107.688 41.8957 107.896 42.1357C108.104 42.3703 108.352 42.525 108.64 42.5997C108.795 42.6423 108.95 42.669 109.104 42.6797C109.259 42.6903 109.392 42.6957 109.504 42.6957ZM122.223 35.2877C122.965 35.2877 123.634 35.4663 124.231 35.8237C124.829 36.1757 125.303 36.661 125.655 37.2797C126.007 37.8983 126.183 38.605 126.183 39.3997V43.0637C126.183 43.9063 126.007 44.645 125.655 45.2797C125.309 45.909 124.823 46.3997 124.199 46.7517C123.581 47.1037 122.866 47.2797 122.055 47.2797C121.447 47.2797 120.877 47.165 120.343 46.9357C119.81 46.7063 119.346 46.365 118.951 45.9117L120.183 44.7677C120.402 45.0503 120.677 45.277 121.007 45.4477C121.338 45.6183 121.687 45.7037 122.055 45.7037C122.53 45.7037 122.949 45.589 123.311 45.3597C123.679 45.1303 123.965 44.8317 124.167 44.4637C124.37 44.0957 124.471 43.701 124.471 43.2797V41.1677L124.807 41.5357C124.477 41.9677 124.066 42.309 123.575 42.5597C123.085 42.8103 122.559 42.9357 121.999 42.9357C121.279 42.9357 120.639 42.7703 120.079 42.4397C119.519 42.109 119.077 41.6583 118.751 41.0877C118.426 40.517 118.263 39.8717 118.263 39.1517C118.263 38.4317 118.445 37.781 118.807 37.1997C119.17 36.6183 119.65 36.1543 120.247 35.8077C120.845 35.461 121.503 35.2877 122.223 35.2877ZM122.223 36.9037C121.807 36.9037 121.426 37.005 121.079 37.2077C120.738 37.405 120.466 37.6743 120.263 38.0157C120.061 38.357 119.959 38.7357 119.959 39.1517C119.959 39.5677 120.061 39.949 120.263 40.2957C120.466 40.637 120.738 40.909 121.079 41.1117C121.421 41.3143 121.799 41.4157 122.215 41.4157C122.631 41.4157 123.01 41.3143 123.351 41.1117C123.693 40.909 123.965 40.637 124.167 40.2957C124.37 39.949 124.471 39.5677 124.471 39.1517C124.471 38.741 124.37 38.365 124.167 38.0237C123.97 37.6823 123.701 37.4103 123.359 37.2077C123.018 37.005 122.639 36.9037 122.223 36.9037ZM129.057 45.9197V44.1517H130.825V45.9197H129.057ZM129.065 41.2877V39.5197H130.833V41.2877H129.065ZM137.683 47.2797C136.899 47.2797 136.206 47.109 135.603 46.7677C135 46.421 134.526 45.9463 134.179 45.3437C133.838 44.741 133.667 44.0477 133.667 43.2637V39.2957C133.667 38.5117 133.838 37.8183 134.179 37.2157C134.526 36.613 135 36.141 135.603 35.7997C136.206 35.453 136.899 35.2797 137.683 35.2797C138.467 35.2797 139.16 35.453 139.763 35.7997C140.366 36.141 140.838 36.613 141.179 37.2157C141.526 37.8183 141.699 38.5117 141.699 39.2957V43.2637C141.699 44.0477 141.526 44.741 141.179 45.3437C140.838 45.9463 140.366 46.421 139.763 46.7677C139.16 47.109 138.467 47.2797 137.683 47.2797ZM137.683 45.6797C138.11 45.6797 138.496 45.5783 138.843 45.3757C139.195 45.1677 139.475 44.8903 139.683 44.5437C139.891 44.1917 139.995 43.7997 139.995 43.3677V39.1757C139.995 38.749 139.891 38.3623 139.683 38.0157C139.475 37.6637 139.195 37.3863 138.843 37.1837C138.496 36.9757 138.11 36.8717 137.683 36.8717C137.256 36.8717 136.867 36.9757 136.515 37.1837C136.168 37.3863 135.891 37.6637 135.683 38.0157C135.475 38.3623 135.371 38.749 135.371 39.1757V43.3677C135.371 43.7997 135.475 44.1917 135.683 44.5437C135.891 44.8903 136.168 45.1677 136.515 45.3757C136.867 45.5783 137.256 45.6797 137.683 45.6797ZM147.949 47.2797C147.165 47.2797 146.471 47.109 145.869 46.7677C145.266 46.421 144.791 45.9463 144.445 45.3437C144.103 44.741 143.933 44.0477 143.933 43.2637V39.2957C143.933 38.5117 144.103 37.8183 144.445 37.2157C144.791 36.613 145.266 36.141 145.869 35.7997C146.471 35.453 147.165 35.2797 147.949 35.2797C148.733 35.2797 149.426 35.453 150.029 35.7997C150.631 36.141 151.103 36.613 151.444 37.2157C151.791 37.8183 151.965 38.5117 151.965 39.2957V43.2637C151.965 44.0477 151.791 44.741 151.444 45.3437C151.103 45.9463 150.631 46.421 150.029 46.7677C149.426 47.109 148.733 47.2797 147.949 47.2797ZM147.949 45.6797C148.375 45.6797 148.762 45.5783 149.109 45.3757C149.461 45.1677 149.741 44.8903 149.949 44.5437C150.157 44.1917 150.261 43.7997 150.261 43.3677V39.1757C150.261 38.749 150.157 38.3623 149.949 38.0157C149.741 37.6637 149.461 37.3863 149.109 37.1837C148.762 36.9757 148.375 36.8717 147.949 36.8717C147.522 36.8717 147.133 36.9757 146.781 37.1837C146.434 37.3863 146.157 37.6637 145.949 38.0157C145.741 38.3623 145.637 38.749 145.637 39.1757V43.3677C145.637 43.7997 145.741 44.1917 145.949 44.5437C146.157 44.8903 146.434 45.1677 146.781 45.3757C147.133 45.5783 147.522 45.6797 147.949 45.6797ZM154.038 41.9437V40.5997H158.838V41.9437H154.038ZM162.925 47.0397V37.3597L160.757 38.6797V36.8157L162.925 35.5197H164.629V47.0397H162.925ZM171.355 47.2797C170.603 47.2797 169.936 47.1303 169.355 46.8317C168.779 46.5277 168.326 46.1063 167.995 45.5677C167.67 45.029 167.507 44.405 167.507 43.6957C167.507 43.0343 167.662 42.429 167.971 41.8797C168.28 41.3303 168.742 40.8983 169.355 40.5837L169.323 41.1597C168.832 40.8557 168.454 40.477 168.187 40.0237C167.926 39.565 167.795 39.053 167.795 38.4877C167.795 37.8317 167.947 37.2637 168.251 36.7837C168.555 36.3037 168.974 35.933 169.507 35.6717C170.046 35.4103 170.662 35.2797 171.355 35.2797C172.048 35.2797 172.662 35.4103 173.195 35.6717C173.728 35.933 174.147 36.3037 174.451 36.7837C174.755 37.2637 174.907 37.8317 174.907 38.4877C174.907 39.053 174.782 39.5623 174.531 40.0157C174.28 40.469 173.896 40.8503 173.379 41.1597L173.355 40.5997C173.963 40.8983 174.424 41.325 174.739 41.8797C175.054 42.429 175.211 43.0343 175.211 43.6957C175.211 44.405 175.046 45.029 174.715 45.5677C174.384 46.1063 173.928 46.5277 173.347 46.8317C172.766 47.1303 172.102 47.2797 171.355 47.2797ZM171.355 45.6877C171.974 45.6877 172.475 45.5197 172.859 45.1837C173.243 44.8423 173.435 44.3463 173.435 43.6957C173.435 43.045 173.243 42.549 172.859 42.2077C172.48 41.861 171.979 41.6877 171.355 41.6877C170.731 41.6877 170.227 41.861 169.843 42.2077C169.464 42.549 169.275 43.045 169.275 43.6957C169.275 44.3463 169.467 44.8423 169.851 45.1837C170.235 45.5197 170.736 45.6877 171.355 45.6877ZM171.355 40.0877C171.883 40.0877 172.31 39.957 172.635 39.6957C172.966 39.429 173.131 39.0263 173.131 38.4877C173.131 37.949 172.966 37.5463 172.635 37.2797C172.31 37.0077 171.883 36.8717 171.355 36.8717C170.827 36.8717 170.398 37.0077 170.067 37.2797C169.736 37.5463 169.571 37.949 169.571 38.4877C169.571 39.0263 169.736 39.429 170.067 39.6957C170.398 39.957 170.827 40.0877 171.355 40.0877ZM177.932 45.9197V44.1517H179.7V45.9197H177.932ZM177.94 41.2877V39.5197H179.708V41.2877H177.94ZM186.558 47.2797C185.774 47.2797 185.081 47.109 184.478 46.7677C183.875 46.421 183.401 45.9463 183.054 45.3437C182.713 44.741 182.542 44.0477 182.542 43.2637V39.2957C182.542 38.5117 182.713 37.8183 183.054 37.2157C183.401 36.613 183.875 36.141 184.478 35.7997C185.081 35.453 185.774 35.2797 186.558 35.2797C187.342 35.2797 188.035 35.453 188.638 35.7997C189.241 36.141 189.713 36.613 190.054 37.2157C190.401 37.8183 190.574 38.5117 190.574 39.2957V43.2637C190.574 44.0477 190.401 44.741 190.054 45.3437C189.713 45.9463 189.241 46.421 188.638 46.7677C188.035 47.109 187.342 47.2797 186.558 47.2797ZM186.558 45.6797C186.985 45.6797 187.371 45.5783 187.718 45.3757C188.07 45.1677 188.35 44.8903 188.558 44.5437C188.766 44.1917 188.87 43.7997 188.87 43.3677V39.1757C188.87 38.749 188.766 38.3623 188.558 38.0157C188.35 37.6637 188.07 37.3863 187.718 37.1837C187.371 36.9757 186.985 36.8717 186.558 36.8717C186.131 36.8717 185.742 36.9757 185.39 37.1837C185.043 37.3863 184.766 37.6637 184.558 38.0157C184.35 38.3623 184.246 38.749 184.246 39.1757V43.3677C184.246 43.7997 184.35 44.1917 184.558 44.5437C184.766 44.8903 185.043 45.1677 185.39 45.3757C185.742 45.5783 186.131 45.6797 186.558 45.6797ZM196.824 47.2797C196.04 47.2797 195.346 47.109 194.744 46.7677C194.141 46.421 193.666 45.9463 193.32 45.3437C192.978 44.741 192.808 44.0477 192.808 43.2637V39.2957C192.808 38.5117 192.978 37.8183 193.32 37.2157C193.666 36.613 194.141 36.141 194.744 35.7997C195.346 35.453 196.04 35.2797 196.824 35.2797C197.608 35.2797 198.301 35.453 198.904 35.7997C199.506 36.141 199.978 36.613 200.319 37.2157C200.666 37.8183 200.84 38.5117 200.84 39.2957V43.2637C200.84 44.0477 200.666 44.741 200.319 45.3437C199.978 45.9463 199.506 46.421 198.904 46.7677C198.301 47.109 197.608 47.2797 196.824 47.2797ZM196.824 45.6797C197.25 45.6797 197.637 45.5783 197.984 45.3757C198.336 45.1677 198.616 44.8903 198.824 44.5437C199.032 44.1917 199.136 43.7997 199.136 43.3677V39.1757C199.136 38.749 199.032 38.3623 198.824 38.0157C198.616 37.6637 198.336 37.3863 197.984 37.1837C197.637 36.9757 197.25 36.8717 196.824 36.8717C196.397 36.8717 196.008 36.9757 195.656 37.1837C195.309 37.3863 195.032 37.6637 194.824 38.0157C194.616 38.3623 194.512 38.749 194.512 39.1757V43.3677C194.512 43.7997 194.616 44.1917 194.824 44.5437C195.032 44.8903 195.309 45.1677 195.656 45.3757C196.008 45.5783 196.397 45.6797 196.824 45.6797Z" fill="#2A3FFF"/>
</g>
<defs>
<clipPath id="clip0_615_411">
<rect width="202" height="52" fill="white" transform="translate(0.078125 0.0396729)"/>
</clipPath>
</defs>
</svg>
