<svg width="65" height="65" viewBox="0 0 65 65" fill="none" xmlns="http://www.w3.org/2000/svg">
<rect width="65" height="65" rx="32.5" fill="#2A3FFF"/>
<path d="M31.4439 27.2222V31.4444L29.3196 31.4708L27.1953 31.5104L27.8286 32.2889C28.1849 32.7111 28.8974 33.5555 29.3988 34.1625C29.9134 34.7562 30.7974 35.8118 31.3648 36.5111C31.9321 37.2104 32.4467 37.7778 32.4995 37.7778C32.5523 37.7778 33.0668 37.2104 33.6342 36.5111C34.2016 35.8118 35.0988 34.7562 35.6002 34.1625C36.1148 33.5555 36.8141 32.7111 37.1703 32.2889L37.8036 31.5104L35.6793 31.4708L33.555 31.4444V27.2222V23H32.4995H31.4439V27.2222Z" fill="white"/>
<path d="M23 37.5931C23 40.6674 23.0264 40.8653 23.5806 41.4194C24.1611 42 24.0819 42 32.5 42C40.9181 42 40.8389 42 41.4194 41.4194C41.9736 40.8653 42 40.6674 42 37.5931V34.6111H40.9444H39.8889V37.25V39.8889H32.5H25.1111V37.25V34.6111H24.0556H23V37.5931Z" fill="white"/>
</svg>
