<svg width="239" height="52" viewBox="0 0 239 52" fill="none" xmlns="http://www.w3.org/2000/svg">
<path d="M42.258 20.052V16.114H38.32V14.035H42.258V10.108H44.337V14.035H48.253V16.114H44.337V20.052H42.258ZM60.0447 23.297C59.2527 23.297 58.5047 23.143 57.8007 22.835C57.0967 22.527 56.4843 22.0907 55.9637 21.526C55.4503 20.9613 55.08 20.294 54.8527 19.524L57.4157 18.831C57.599 19.4617 57.9327 19.9493 58.4167 20.294C58.908 20.6313 59.447 20.7963 60.0337 20.789C60.5543 20.789 61.02 20.668 61.4307 20.426C61.8413 20.184 62.164 19.8577 62.3987 19.447C62.6333 19.029 62.7507 18.5633 62.7507 18.05C62.7507 17.2653 62.4977 16.609 61.9917 16.081C61.4857 15.553 60.833 15.289 60.0337 15.289C59.7917 15.289 59.5533 15.322 59.3187 15.388C59.0913 15.454 58.8713 15.5457 58.6587 15.663L57.4487 13.573L62.7727 9.019L63.0037 9.657H55.4687V7.16H65.1817V9.668L60.9027 13.782L60.8807 13.001C61.8413 13.067 62.659 13.3347 63.3337 13.804C64.0157 14.2733 64.5363 14.8783 64.8957 15.619C65.2623 16.3597 65.4457 17.17 65.4457 18.05C65.4457 19.0473 65.2 19.942 64.7087 20.734C64.2247 21.526 63.572 22.153 62.7507 22.615C61.9367 23.0697 61.0347 23.297 60.0447 23.297ZM69.0989 23L74.5549 9.668H67.6359V7.16H77.3929V9.668L71.9589 23H69.0989ZM84.7233 23.33C83.9167 23.33 83.165 23.165 82.4683 22.835C81.7717 22.4977 81.1703 22.0357 80.6643 21.449C80.1657 20.8623 79.8063 20.1803 79.5863 19.403L82.1383 18.721C82.241 19.1463 82.428 19.513 82.6993 19.821C82.978 20.129 83.3007 20.3673 83.6673 20.536C84.0413 20.7047 84.4263 20.789 84.8223 20.789C85.3357 20.789 85.805 20.6643 86.2303 20.415C86.6557 20.1657 86.993 19.832 87.2423 19.414C87.4917 18.9887 87.6163 18.5193 87.6163 18.006C87.6163 17.4927 87.488 17.027 87.2313 16.609C86.982 16.1837 86.6447 15.85 86.2193 15.608C85.794 15.3587 85.3283 15.234 84.8223 15.234C84.2137 15.234 83.7077 15.344 83.3043 15.564C82.9083 15.784 82.604 16.0187 82.3913 16.268L80.1253 15.542L80.6093 7.16H89.2113V9.646H82.0283L83.0183 8.711L82.6663 14.541L82.1823 13.947C82.593 13.573 83.0697 13.2943 83.6123 13.111C84.155 12.9277 84.6793 12.836 85.1853 12.836C86.1753 12.836 87.0517 13.0633 87.8143 13.518C88.5843 13.9653 89.1857 14.5777 89.6183 15.355C90.0583 16.1323 90.2783 17.016 90.2783 18.006C90.2783 18.996 90.0217 19.8943 89.5083 20.701C88.995 21.5003 88.3167 22.1383 87.4733 22.615C86.6373 23.0917 85.7207 23.33 84.7233 23.33ZM100.071 23V10.053L97.1013 11.868V8.942L100.071 7.16H102.777V23H100.071ZM107.771 23L113.227 9.668H106.308V7.16H116.065V9.668L110.631 23H107.771ZM127.635 23.297C126.843 23.297 126.095 23.143 125.391 22.835C124.687 22.527 124.074 22.0907 123.554 21.526C123.04 20.9613 122.67 20.294 122.443 19.524L125.006 18.831C125.189 19.4617 125.523 19.9493 126.007 20.294C126.498 20.6313 127.037 20.7963 127.623 20.789C128.144 20.789 128.61 20.668 129.021 20.426C129.431 20.184 129.754 19.8577 129.989 19.447C130.223 19.029 130.341 18.5633 130.341 18.05C130.341 17.2653 130.088 16.609 129.582 16.081C129.076 15.553 128.423 15.289 127.623 15.289C127.382 15.289 127.143 15.322 126.909 15.388C126.681 15.454 126.461 15.5457 126.249 15.663L125.039 13.573L130.363 9.019L130.594 9.657H123.059V7.16H132.772V9.668L128.493 13.782L128.471 13.001C129.431 13.067 130.249 13.3347 130.924 13.804C131.606 14.2733 132.126 14.8783 132.486 15.619C132.852 16.3597 133.036 17.17 133.036 18.05C133.036 19.0473 132.79 19.942 132.299 20.734C131.815 21.526 131.162 22.153 130.341 22.615C129.527 23.0697 128.625 23.297 127.635 23.297ZM136.689 23L142.145 9.668H135.226V7.16H144.983V9.668L139.549 23H136.689ZM152.731 6.852C153.765 6.852 154.697 7.09767 155.525 7.589C156.354 8.073 157.007 8.74767 157.483 9.613C157.967 10.471 158.209 11.461 158.209 12.583V17.412C158.209 18.6073 157.967 19.6523 157.483 20.547C157.007 21.4343 156.336 22.12 155.47 22.604C154.605 23.088 153.593 23.33 152.434 23.33C151.635 23.33 150.88 23.1943 150.168 22.923C149.457 22.6443 148.819 22.219 148.254 21.647L150.157 19.788C150.443 20.118 150.784 20.3783 151.18 20.569C151.584 20.7523 152.002 20.844 152.434 20.844C153.05 20.844 153.589 20.701 154.051 20.415C154.513 20.1217 154.873 19.744 155.129 19.282C155.386 18.8127 155.514 18.3103 155.514 17.775V15.146L155.987 15.674C155.54 16.202 154.997 16.6163 154.359 16.917C153.721 17.2103 153.05 17.357 152.346 17.357C151.356 17.357 150.476 17.1297 149.706 16.675C148.944 16.2203 148.342 15.6043 147.902 14.827C147.47 14.0423 147.253 13.155 147.253 12.165C147.253 11.175 147.503 10.2803 148.001 9.481C148.5 8.67433 149.164 8.03633 149.992 7.567C150.828 7.09033 151.741 6.852 152.731 6.852ZM152.731 9.382C152.218 9.382 151.749 9.50667 151.323 9.756C150.898 10.0053 150.561 10.3427 150.311 10.768C150.062 11.186 149.937 11.6517 149.937 12.165C149.937 12.6783 150.058 13.1477 150.3 13.573C150.55 13.9983 150.883 14.3357 151.301 14.585C151.727 14.8343 152.196 14.959 152.709 14.959C153.223 14.959 153.692 14.8343 154.117 14.585C154.543 14.3357 154.88 13.9983 155.129 13.573C155.386 13.1477 155.514 12.6783 155.514 12.165C155.514 11.6663 155.39 11.208 155.14 10.79C154.891 10.3647 154.554 10.0237 154.128 9.767C153.71 9.51033 153.245 9.382 152.731 9.382ZM172.263 23V20.382H165.245V17.907L170.316 7.16H173.341L168.27 17.907H172.263V13.782H174.947V17.907H176.432V20.382H174.947V23H172.263ZM181.819 23V10.053L178.849 11.868V8.942L181.819 7.16H184.525V23H181.819ZM195.87 23V10.053L192.9 11.868V8.942L195.87 7.16H198.576V23H195.87ZM209.345 23V20.382H202.327V17.907L207.398 7.16H210.423L205.352 17.907H209.345V13.782H212.029V17.907H213.514V20.382H212.029V23H209.345Z" fill="white"/>
<path opacity="0.5" d="M38.12 47V35.48H45.48V37.056H39.792V47H38.12ZM49.2314 47.24C48.3674 47.24 47.618 47.0453 46.9834 46.656C46.3487 46.2667 45.858 45.7307 45.5114 45.048C45.17 44.36 44.9994 43.568 44.9994 42.672C44.9994 41.7707 45.1754 40.9787 45.5274 40.296C45.8794 39.608 46.3727 39.0747 47.0074 38.696C47.642 38.312 48.3834 38.12 49.2314 38.12C50.0954 38.12 50.8447 38.3147 51.4794 38.704C52.114 39.0933 52.6047 39.6293 52.9514 40.312C53.298 40.9947 53.4714 41.7813 53.4714 42.672C53.4714 43.5733 53.2954 44.368 52.9434 45.056C52.5967 45.7387 52.106 46.2747 51.4714 46.664C50.8367 47.048 50.09 47.24 49.2314 47.24ZM49.2314 45.664C50.058 45.664 50.674 45.3867 51.0794 44.832C51.49 44.272 51.6954 43.552 51.6954 42.672C51.6954 41.7707 51.4874 41.0507 51.0714 40.512C50.6607 39.968 50.0474 39.696 49.2314 39.696C48.6714 39.696 48.21 39.824 47.8474 40.08C47.4847 40.3307 47.2154 40.68 47.0394 41.128C46.8634 41.5707 46.7754 42.0853 46.7754 42.672C46.7754 43.5787 46.9834 44.304 47.3994 44.848C47.8154 45.392 48.426 45.664 49.2314 45.664ZM59.2854 47.24C58.4587 47.24 57.7654 47.04 57.2054 46.64C56.6454 46.2347 56.2214 45.688 55.9334 45C55.6454 44.312 55.5014 43.536 55.5014 42.672C55.5014 41.808 55.6427 41.032 55.9254 40.344C56.2134 39.656 56.6347 39.1147 57.1894 38.72C57.7494 38.32 58.4374 38.12 59.2534 38.12C60.064 38.12 60.7627 38.32 61.3494 38.72C61.9414 39.1147 62.3974 39.656 62.7174 40.344C63.0374 41.0267 63.1974 41.8027 63.1974 42.672C63.1974 43.536 63.0374 44.3147 62.7174 45.008C62.4027 45.696 61.952 46.24 61.3654 46.64C60.784 47.04 60.0907 47.24 59.2854 47.24ZM55.2214 50.84V38.36H56.7094V44.576H56.9014V50.84H55.2214ZM59.0534 45.728C59.5867 45.728 60.0267 45.592 60.3734 45.32C60.7254 45.048 60.9867 44.6827 61.1574 44.224C61.3334 43.76 61.4214 43.2427 61.4214 42.672C61.4214 42.1067 61.3334 41.5947 61.1574 41.136C60.9867 40.6773 60.7227 40.312 60.3654 40.04C60.008 39.768 59.552 39.632 58.9974 39.632C58.4747 39.632 58.0427 39.76 57.7014 40.016C57.3654 40.272 57.1147 40.6293 56.9494 41.088C56.7894 41.5467 56.7094 42.0747 56.7094 42.672C56.7094 43.2693 56.7894 43.7973 56.9494 44.256C57.1094 44.7147 57.3627 45.0747 57.7094 45.336C58.056 45.5973 58.504 45.728 59.0534 45.728ZM70.2198 47V44H68.5078C68.3051 44 68.0624 43.992 67.7798 43.976C67.5024 43.96 67.2411 43.9307 66.9958 43.888C66.3504 43.7707 65.8118 43.4907 65.3798 43.048C64.9478 42.6 64.7318 41.984 64.7318 41.2C64.7318 40.4427 64.9344 39.8347 65.3398 39.376C65.7504 38.912 66.2704 38.6133 66.8998 38.48C67.1718 38.416 67.4491 38.3813 67.7318 38.376C68.0198 38.3653 68.2624 38.36 68.4598 38.36H71.8918L71.8998 47H70.2198ZM64.4838 47L66.6678 43.584H68.4358L66.2678 47H64.4838ZM68.3637 42.656H70.2198V39.704H68.3637C68.2464 39.704 68.1024 39.7093 67.9318 39.72C67.7611 39.7307 67.5958 39.76 67.4358 39.808C67.2704 39.856 67.1104 39.9413 66.9558 40.064C66.8064 40.1867 66.6838 40.344 66.5878 40.536C66.4918 40.7227 66.4438 40.9387 66.4438 41.184C66.4438 41.552 66.5478 41.856 66.7558 42.096C66.9638 42.3307 67.2118 42.4853 67.4998 42.56C67.6544 42.6027 67.8091 42.6293 67.9638 42.64C68.1184 42.6507 68.2518 42.656 68.3637 42.656ZM79.2476 47V43.992C78.9543 44.1413 78.6103 44.264 78.2156 44.36C77.821 44.4507 77.405 44.496 76.9676 44.496C76.0823 44.496 75.3703 44.2987 74.8316 43.904C74.2983 43.504 73.9516 42.928 73.7916 42.176C73.749 41.952 73.717 41.7227 73.6956 41.488C73.6743 41.248 73.661 41.0293 73.6556 40.832C73.6556 40.6347 73.6556 40.488 73.6556 40.392V38.36H75.3516V40.392C75.3516 40.5307 75.357 40.7147 75.3676 40.944C75.3783 41.168 75.4076 41.3867 75.4556 41.6C75.557 42.08 75.7596 42.4373 76.0636 42.672C76.3676 42.9013 76.797 43.016 77.3516 43.016C77.7516 43.016 78.1116 42.9653 78.4316 42.864C78.757 42.7573 79.029 42.6213 79.2476 42.456V38.36H80.9356V47H79.2476ZM85.6225 47.24C84.9825 47.24 84.4465 47.1227 84.0145 46.888C83.5825 46.648 83.2545 46.3333 83.0305 45.944C82.8118 45.5493 82.7025 45.1173 82.7025 44.648C82.7025 44.2107 82.7798 43.8267 82.9345 43.496C83.0892 43.1653 83.3185 42.8853 83.6225 42.656C83.9265 42.4213 84.2998 42.232 84.7425 42.088C85.1265 41.976 85.5612 41.8773 86.0465 41.792C86.5318 41.7067 87.0412 41.6267 87.5745 41.552C88.1132 41.4773 88.6465 41.4027 89.1745 41.328L88.5665 41.664C88.5772 40.9867 88.4332 40.4853 88.1345 40.16C87.8412 39.8293 87.3345 39.664 86.6145 39.664C86.1612 39.664 85.7452 39.7707 85.3665 39.984C84.9878 40.192 84.7238 40.5387 84.5745 41.024L83.0145 40.544C83.2278 39.8027 83.6332 39.2133 84.2305 38.776C84.8332 38.3387 85.6332 38.12 86.6305 38.12C87.4038 38.12 88.0758 38.2533 88.6465 38.52C89.2225 38.7813 89.6438 39.1973 89.9105 39.768C90.0492 40.0507 90.1345 40.3493 90.1665 40.664C90.1985 40.9787 90.2145 41.3173 90.2145 41.68V47H88.7345V45.024L89.0225 45.28C88.6652 45.9413 88.2092 46.4347 87.6545 46.76C87.1052 47.08 86.4278 47.24 85.6225 47.24ZM85.9185 45.872C86.3932 45.872 86.8012 45.7893 87.1425 45.624C87.4838 45.4533 87.7585 45.2373 87.9665 44.976C88.1745 44.7147 88.3105 44.4427 88.3745 44.16C88.4652 43.904 88.5158 43.616 88.5265 43.296C88.5425 42.976 88.5505 42.72 88.5505 42.528L89.0945 42.728C88.5665 42.808 88.0865 42.88 87.6545 42.944C87.2225 43.008 86.8305 43.072 86.4785 43.136C86.1318 43.1947 85.8225 43.2667 85.5505 43.352C85.3212 43.432 85.1158 43.528 84.9345 43.64C84.7585 43.752 84.6172 43.888 84.5105 44.048C84.4092 44.208 84.3585 44.4027 84.3585 44.632C84.3585 44.856 84.4145 45.064 84.5265 45.256C84.6385 45.4427 84.8092 45.592 85.0385 45.704C85.2678 45.816 85.5612 45.872 85.9185 45.872ZM97.5479 47V44H95.8359C95.6332 44 95.3905 43.992 95.1079 43.976C94.8305 43.96 94.5692 43.9307 94.3239 43.888C93.6785 43.7707 93.1399 43.4907 92.7079 43.048C92.2759 42.6 92.0599 41.984 92.0599 41.2C92.0599 40.4427 92.2625 39.8347 92.6679 39.376C93.0785 38.912 93.5985 38.6133 94.2279 38.48C94.4999 38.416 94.7772 38.3813 95.0599 38.376C95.3479 38.3653 95.5905 38.36 95.7879 38.36H99.2199L99.2279 47H97.5479ZM91.8119 47L93.9959 43.584H95.7639L93.5959 47H91.8119ZM95.6919 42.656H97.5479V39.704H95.6919C95.5745 39.704 95.4305 39.7093 95.2599 39.72C95.0892 39.7307 94.9239 39.76 94.7639 39.808C94.5985 39.856 94.4385 39.9413 94.2839 40.064C94.1345 40.1867 94.0119 40.344 93.9159 40.536C93.8199 40.7227 93.7719 40.9387 93.7719 41.184C93.7719 41.552 93.8759 41.856 94.0839 42.096C94.2919 42.3307 94.5399 42.4853 94.8279 42.56C94.9825 42.6027 95.1372 42.6293 95.2919 42.64C95.4465 42.6507 95.5799 42.656 95.6919 42.656ZM103.867 47V45.584C104.187 45.6427 104.43 45.6347 104.595 45.56C104.766 45.48 104.891 45.336 104.971 45.128C105.056 44.92 105.128 44.6507 105.187 44.32C105.278 43.8347 105.355 43.2827 105.419 42.664C105.488 42.04 105.55 41.3653 105.603 40.64C105.656 39.9147 105.704 39.1547 105.747 38.36H111.955V47H110.275V39.936H107.251C107.219 40.3573 107.182 40.8053 107.139 41.28C107.102 41.7493 107.059 42.216 107.011 42.68C106.963 43.144 106.912 43.5787 106.859 43.984C106.806 44.3893 106.75 44.736 106.691 45.024C106.584 45.6 106.427 46.0587 106.219 46.4C106.016 46.736 105.728 46.952 105.355 47.048C104.982 47.1493 104.486 47.1333 103.867 47ZM121.478 38.36V47H119.87V40.992L115.55 47H114.19V38.36H115.798V44.248L120.126 38.36H121.478ZM123.706 47V38.36H125.378V41.888H129.594V38.36H131.266V47H129.594V43.464H125.378V47H123.706ZM140.791 38.36V47H139.183V40.992L134.863 47H133.503V38.36H135.111V44.248L139.439 38.36H140.791ZM148.282 47V44H146.57C146.368 44 146.125 43.992 145.842 43.976C145.565 43.96 145.304 43.9307 145.058 43.888C144.413 43.7707 143.874 43.4907 143.442 43.048C143.01 42.6 142.794 41.984 142.794 41.2C142.794 40.4427 142.997 39.8347 143.402 39.376C143.813 38.912 144.333 38.6133 144.962 38.48C145.234 38.416 145.512 38.3813 145.794 38.376C146.082 38.3653 146.325 38.36 146.522 38.36H149.954L149.962 47H148.282ZM142.546 47L144.73 43.584H146.498L144.33 47H142.546ZM146.426 42.656H148.282V39.704H146.426C146.309 39.704 146.165 39.7093 145.994 39.72C145.824 39.7307 145.658 39.76 145.498 39.808C145.333 39.856 145.173 39.9413 145.018 40.064C144.869 40.1867 144.746 40.344 144.65 40.536C144.554 40.7227 144.506 40.9387 144.506 41.184C144.506 41.552 144.61 41.856 144.818 42.096C145.026 42.3307 145.274 42.4853 145.562 42.56C145.717 42.6027 145.872 42.6293 146.026 42.64C146.181 42.6507 146.314 42.656 146.426 42.656ZM159.145 35.248C159.887 35.248 160.556 35.4267 161.153 35.784C161.751 36.136 162.225 36.6213 162.577 37.24C162.929 37.8587 163.105 38.5653 163.105 39.36V43.024C163.105 43.8667 162.929 44.6053 162.577 45.24C162.231 45.8693 161.745 46.36 161.121 46.712C160.503 47.064 159.788 47.24 158.977 47.24C158.369 47.24 157.799 47.1253 157.265 46.896C156.732 46.6667 156.268 46.3253 155.873 45.872L157.105 44.728C157.324 45.0107 157.599 45.2373 157.929 45.408C158.26 45.5787 158.609 45.664 158.977 45.664C159.452 45.664 159.871 45.5493 160.233 45.32C160.601 45.0907 160.887 44.792 161.089 44.424C161.292 44.056 161.393 43.6613 161.393 43.24V41.128L161.729 41.496C161.399 41.928 160.988 42.2693 160.497 42.52C160.007 42.7707 159.481 42.896 158.921 42.896C158.201 42.896 157.561 42.7307 157.001 42.4C156.441 42.0693 155.999 41.6187 155.673 41.048C155.348 40.4773 155.185 39.832 155.185 39.112C155.185 38.392 155.367 37.7413 155.729 37.16C156.092 36.5787 156.572 36.1147 157.169 35.768C157.767 35.4213 158.425 35.248 159.145 35.248ZM159.145 36.864C158.729 36.864 158.348 36.9653 158.001 37.168C157.66 37.3653 157.388 37.6347 157.185 37.976C156.983 38.3173 156.881 38.696 156.881 39.112C156.881 39.528 156.983 39.9093 157.185 40.256C157.388 40.5973 157.66 40.8693 158.001 41.072C158.343 41.2747 158.721 41.376 159.137 41.376C159.553 41.376 159.932 41.2747 160.273 41.072C160.615 40.8693 160.887 40.5973 161.089 40.256C161.292 39.9093 161.393 39.528 161.393 39.112C161.393 38.7013 161.292 38.3253 161.089 37.984C160.892 37.6427 160.623 37.3707 160.281 37.168C159.94 36.9653 159.561 36.864 159.145 36.864ZM165.979 45.88V44.112H167.747V45.88H165.979ZM165.987 41.248V39.48H167.755V41.248H165.987ZM174.605 47.24C173.821 47.24 173.127 47.0693 172.525 46.728C171.922 46.3813 171.447 45.9067 171.101 45.304C170.759 44.7013 170.589 44.008 170.589 43.224V39.256C170.589 38.472 170.759 37.7787 171.101 37.176C171.447 36.5733 171.922 36.1013 172.525 35.76C173.127 35.4133 173.821 35.24 174.605 35.24C175.389 35.24 176.082 35.4133 176.685 35.76C177.287 36.1013 177.759 36.5733 178.101 37.176C178.447 37.7787 178.621 38.472 178.621 39.256V43.224C178.621 44.008 178.447 44.7013 178.101 45.304C177.759 45.9067 177.287 46.3813 176.685 46.728C176.082 47.0693 175.389 47.24 174.605 47.24ZM174.605 45.64C175.031 45.64 175.418 45.5387 175.765 45.336C176.117 45.128 176.397 44.8507 176.605 44.504C176.813 44.152 176.917 43.76 176.917 43.328V39.136C176.917 38.7093 176.813 38.3227 176.605 37.976C176.397 37.624 176.117 37.3467 175.765 37.144C175.418 36.936 175.031 36.832 174.605 36.832C174.178 36.832 173.789 36.936 173.437 37.144C173.09 37.3467 172.813 37.624 172.605 37.976C172.397 38.3227 172.293 38.7093 172.293 39.136V43.328C172.293 43.76 172.397 44.152 172.605 44.504C172.813 44.8507 173.09 45.128 173.437 45.336C173.789 45.5387 174.178 45.64 174.605 45.64ZM184.87 47.24C184.086 47.24 183.393 47.0693 182.79 46.728C182.188 46.3813 181.713 45.9067 181.366 45.304C181.025 44.7013 180.854 44.008 180.854 43.224V39.256C180.854 38.472 181.025 37.7787 181.366 37.176C181.713 36.5733 182.188 36.1013 182.79 35.76C183.393 35.4133 184.086 35.24 184.87 35.24C185.654 35.24 186.348 35.4133 186.95 35.76C187.553 36.1013 188.025 36.5733 188.366 37.176C188.713 37.7787 188.886 38.472 188.886 39.256V43.224C188.886 44.008 188.713 44.7013 188.366 45.304C188.025 45.9067 187.553 46.3813 186.95 46.728C186.348 47.0693 185.654 47.24 184.87 47.24ZM184.87 45.64C185.297 45.64 185.684 45.5387 186.03 45.336C186.382 45.128 186.662 44.8507 186.87 44.504C187.078 44.152 187.182 43.76 187.182 43.328V39.136C187.182 38.7093 187.078 38.3227 186.87 37.976C186.662 37.624 186.382 37.3467 186.03 37.144C185.684 36.936 185.297 36.832 184.87 36.832C184.444 36.832 184.054 36.936 183.702 37.144C183.356 37.3467 183.078 37.624 182.87 37.976C182.662 38.3227 182.558 38.7093 182.558 39.136V43.328C182.558 43.76 182.662 44.152 182.87 44.504C183.078 44.8507 183.356 45.128 183.702 45.336C184.054 45.5387 184.444 45.64 184.87 45.64ZM190.96 41.904V40.56H195.76V41.904H190.96ZM199.847 47V37.32L197.679 38.64V36.776L199.847 35.48H201.551V47H199.847ZM208.277 47.24C207.525 47.24 206.858 47.0907 206.277 46.792C205.701 46.488 205.247 46.0667 204.917 45.528C204.591 44.9893 204.429 44.3653 204.429 43.656C204.429 42.9947 204.583 42.3893 204.893 41.84C205.202 41.2907 205.663 40.8587 206.277 40.544L206.245 41.12C205.754 40.816 205.375 40.4373 205.109 39.984C204.847 39.5253 204.717 39.0133 204.717 38.448C204.717 37.792 204.869 37.224 205.173 36.744C205.477 36.264 205.895 35.8933 206.429 35.632C206.967 35.3707 207.583 35.24 208.277 35.24C208.97 35.24 209.583 35.3707 210.117 35.632C210.65 35.8933 211.069 36.264 211.373 36.744C211.677 37.224 211.829 37.792 211.829 38.448C211.829 39.0133 211.703 39.5227 211.453 39.976C211.202 40.4293 210.818 40.8107 210.301 41.12L210.277 40.56C210.885 40.8587 211.346 41.2853 211.661 41.84C211.975 42.3893 212.133 42.9947 212.133 43.656C212.133 44.3653 211.967 44.9893 211.637 45.528C211.306 46.0667 210.85 46.488 210.269 46.792C209.687 47.0907 209.023 47.24 208.277 47.24ZM208.277 45.648C208.895 45.648 209.397 45.48 209.781 45.144C210.165 44.8027 210.357 44.3067 210.357 43.656C210.357 43.0053 210.165 42.5093 209.781 42.168C209.402 41.8213 208.901 41.648 208.277 41.648C207.653 41.648 207.149 41.8213 206.765 42.168C206.386 42.5093 206.197 43.0053 206.197 43.656C206.197 44.3067 206.389 44.8027 206.773 45.144C207.157 45.48 207.658 45.648 208.277 45.648ZM208.277 40.048C208.805 40.048 209.231 39.9173 209.557 39.656C209.887 39.3893 210.053 38.9867 210.053 38.448C210.053 37.9093 209.887 37.5067 209.557 37.24C209.231 36.968 208.805 36.832 208.277 36.832C207.749 36.832 207.319 36.968 206.989 37.24C206.658 37.5067 206.493 37.9093 206.493 38.448C206.493 38.9867 206.658 39.3893 206.989 39.656C207.319 39.9173 207.749 40.048 208.277 40.048ZM214.854 45.88V44.112H216.622V45.88H214.854ZM214.862 41.248V39.48H216.63V41.248H214.862ZM223.48 47.24C222.696 47.24 222.002 47.0693 221.4 46.728C220.797 46.3813 220.322 45.9067 219.976 45.304C219.634 44.7013 219.464 44.008 219.464 43.224V39.256C219.464 38.472 219.634 37.7787 219.976 37.176C220.322 36.5733 220.797 36.1013 221.4 35.76C222.002 35.4133 222.696 35.24 223.48 35.24C224.264 35.24 224.957 35.4133 225.56 35.76C226.162 36.1013 226.634 36.5733 226.976 37.176C227.322 37.7787 227.496 38.472 227.496 39.256V43.224C227.496 44.008 227.322 44.7013 226.976 45.304C226.634 45.9067 226.162 46.3813 225.56 46.728C224.957 47.0693 224.264 47.24 223.48 47.24ZM223.48 45.64C223.906 45.64 224.293 45.5387 224.64 45.336C224.992 45.128 225.272 44.8507 225.48 44.504C225.688 44.152 225.792 43.76 225.792 43.328V39.136C225.792 38.7093 225.688 38.3227 225.48 37.976C225.272 37.624 224.992 37.3467 224.64 37.144C224.293 36.936 223.906 36.832 223.48 36.832C223.053 36.832 222.664 36.936 222.312 37.144C221.965 37.3467 221.688 37.624 221.48 37.976C221.272 38.3227 221.168 38.7093 221.168 39.136V43.328C221.168 43.76 221.272 44.152 221.48 44.504C221.688 44.8507 221.965 45.128 222.312 45.336C222.664 45.5387 223.053 45.64 223.48 45.64ZM233.745 47.24C232.961 47.24 232.268 47.0693 231.665 46.728C231.063 46.3813 230.588 45.9067 230.241 45.304C229.9 44.7013 229.729 44.008 229.729 43.224V39.256C229.729 38.472 229.9 37.7787 230.241 37.176C230.588 36.5733 231.063 36.1013 231.665 35.76C232.268 35.4133 232.961 35.24 233.745 35.24C234.529 35.24 235.223 35.4133 235.825 35.76C236.428 36.1013 236.9 36.5733 237.241 37.176C237.588 37.7787 237.761 38.472 237.761 39.256V43.224C237.761 44.008 237.588 44.7013 237.241 45.304C236.9 45.9067 236.428 46.3813 235.825 46.728C235.223 47.0693 234.529 47.24 233.745 47.24ZM233.745 45.64C234.172 45.64 234.559 45.5387 234.905 45.336C235.257 45.128 235.537 44.8507 235.745 44.504C235.953 44.152 236.057 43.76 236.057 43.328V39.136C236.057 38.7093 235.953 38.3227 235.745 37.976C235.537 37.624 235.257 37.3467 234.905 37.144C234.559 36.936 234.172 36.832 233.745 36.832C233.319 36.832 232.929 36.936 232.577 37.144C232.231 37.3467 231.953 37.624 231.745 37.976C231.537 38.3227 231.433 38.7093 231.433 39.136V43.328C231.433 43.76 231.537 44.152 231.745 44.504C231.953 44.8507 232.231 45.128 232.577 45.336C232.929 45.5387 233.319 45.64 233.745 45.64Z" fill="white"/>
<path fill-rule="evenodd" clip-rule="evenodd" d="M8.92288 6.82422L8.38578 6.66309C8.38578 6.66309 8.07083 6.88525 7.68997 7.15869C6.90384 7.71777 6.84281 7.77881 6.61576 8.23779C6.32279 8.83594 6.19095 9.48779 6.19339 10.3252C6.19583 11.0479 6.29837 11.707 6.53031 12.4858C7.00638 14.0801 7.87552 15.6426 9.4014 17.6494C9.9556 18.3794 10.7369 19.2363 11.2788 19.7124C12.4922 20.7793 13.6592 21.3701 14.8628 21.5312C15.3658 21.5972 16.0616 21.5508 16.606 21.4141L16.8672 21.3481L18.1563 20.3569L18.1856 20.0884L18.2173 19.8223L17.9781 19.4976C17.2163 18.4697 15.8589 16.6582 15.8394 16.646C15.8003 16.6216 15.378 16.5728 15.3487 16.5923C15.3316 16.6021 15.0508 16.7998 14.7237 17.0317C14.3965 17.2661 14.0865 17.4785 14.0352 17.5054C13.8887 17.5786 13.6958 17.6079 13.5347 17.5786C13.2417 17.5249 12.9903 17.3564 12.2408 16.7144C11.6206 16.1846 11.3057 15.8135 10.6807 14.8662C10.1509 14.0654 10.0728 13.9214 9.83353 13.2842C9.5723 12.5957 9.52103 12.4102 9.52103 12.1465C9.52103 11.917 9.57962 11.7607 9.72122 11.6191C9.76761 11.5728 10.1045 11.3262 10.4683 11.0723C10.8345 10.8184 11.1324 10.5986 11.1324 10.584C11.1334 10.5776 11.1368 10.5523 11.1417 10.5157C11.148 10.4682 11.1569 10.4015 11.1665 10.3325L11.1983 10.1055L8.92288 6.82422Z" fill="white"/>
</svg>
